<svg xmlns="http://www.w3.org/2000/svg" version="1.1" width="24" height="24">
<path class="button eject-button" fill="#333333" stroke="#000000" d="M12.504,7.871L13.745999999999999,9.504000000000001C14.022999999999998,9.866000000000001,14.475999999999999,10.475000000000001,14.753999999999998,10.838000000000001L15.995999999999999,12.492C16.273,12.854000000000001,16.049,13.21,15.499999999999998,13.21H13C12.45,13.21,11.549,13.21,11,13.21H8.5C7.95,13.21,7.727,12.854000000000001,8.004,12.492L9.245999999999999,10.807C9.522999999999998,10.445,9.975999999999999,9.851,10.253999999999998,9.489L11.495999999999999,7.864000000000001C11.773,7.5,12.227,7.508,12.504,7.871ZM8.545,14.404C8.27,14.404,8.045,14.7,8.045,14.974V15.904C8.045,16.178,8.27,16.404,8.545,16.404H15.518C15.793000000000001,16.404,16.045,16.178,16.045,15.904V14.974C16.045,14.7,15.793000000000001,14.404,15.518000000000002,14.404H8.545Z"></path>
</svg>