<svg xmlns="http://www.w3.org/2000/svg" version="1.1" width="24" height="24">
<path class="button fast-forward-button" fill="#333333" d="M17.812,12.504L15.673000000000002,13.745999999999999C15.197000000000003,14.022999999999998,14.402000000000001,14.475999999999999,13.928,14.753999999999998L11.763000000000002,15.995999999999999C11.287000000000003,16.273,10.827000000000002,16.049999999999997,10.827000000000002,15.499999999999998V13.499999999999998L10.476000000000003,13.745999999999999C10.001000000000003,14.022999999999998,9.295000000000002,14.475999999999999,8.820000000000002,14.753999999999998L6.690000000000002,15.995999999999999C6.216,16.273,5.827,16.05,5.827,15.5V13C5.827,12.45,5.827,11.55,5.827,11V8.5C5.827,7.95,6.198,7.727,6.673,8.005L8.785,9.246C9.26,9.523,10.002,9.976,10.476,10.254000000000001L10.827000000000002,10.500000000000002V8.500000000000002C10.827000000000002,7.950000000000002,11.287000000000003,7.727000000000002,11.763000000000002,8.005000000000003L13.963000000000001,9.246000000000002C14.439,9.523000000000001,15.216000000000001,9.976000000000003,15.692,10.254000000000001L17.821,11.496000000000002C18.296,11.773,18.287,12.227,17.812,12.504Z"></path>
</svg>