<svg xmlns="http://www.w3.org/2000/svg" version="1.1" width="24" height="24">
<path class="button next-button" fill="#333333" d="M16,8.643V15.616C16,15.891,15.775,16.116,15.5,16.116H14.571C14.297,16.116,14,15.891,14,15.616V12.937999999999999L12.654,13.746999999999998C12.178,14.023999999999997,11.440999999999999,14.476999999999999,10.966,14.754999999999999L8.844999999999999,15.997C8.371,16.273,8,16.049,8,15.5V13C8,12.45,8,11.549,8,11V8.5C8,7.95,8.362,7.727,8.837,8.004L10.94,9.245999999999999C11.415,9.522999999999998,12.174,9.975999999999999,12.649999999999999,10.253999999999998L14,11.062V8.642C14,8.366999999999999,14.297,8.115,14.571,8.115H15.5C15.775,8.115,16,8.367,16,8.643Z"></path>
</svg>