<svg xmlns="http://www.w3.org/2000/svg" version="1.1" width="24" height="24">
<path class="button prev-button" fill="#333333" d="M16,8.5V11C16,11.55,16,12.45,16,13V15.5C16,16.05,15.631,16.273,15.156,15.996L13.047,14.754000000000001C12.571000000000002,14.477000000000002,11.817,14.024000000000001,11.342,13.746000000000002L10,12.937V15.357C10,15.633,9.686,16,9.41,16H8.482C8.207,16,8,15.633,8,15.357V8.643C8,8.367,8.207,8,8.482,8H9.41C9.686,8,10,8.367,10,8.643V11.063L11.34,10.254000000000001C11.815,9.977000000000002,12.545,9.524000000000001,13.02,9.246000000000002L15.145999999999999,8.005000000000003C15.62,7.727,16,7.95,16,8.5Z"></path>
</svg>