<svg xmlns="http://www.w3.org/2000/svg" version="1.1" width="24" height="24">
<path class="button rewind-button" fill="#333333" d="M17.967,8.5V11C17.967,11.55,17.967,12.45,17.967,13V15.5C17.967,16.05,17.758,16.273,17.282,15.996L15.331,14.754000000000001C14.855,14.477000000000002,14.008,14.024000000000001,13.530999999999999,13.746000000000002L12.967,13.5V15.5C12.967,16.05,12.721,16.273,12.245000000000001,15.996L10.258000000000001,14.754000000000001C9.782,14.477000000000002,9.003,14.024000000000001,8.528,13.746000000000002L6.394,12.504000000000001C5.9190000000000005,12.227000000000002,5.91,11.774000000000001,6.385,11.496000000000002L8.497,10.254000000000001C8.972,9.977000000000002,9.714,9.524000000000001,10.189,9.246000000000002L12.247,8.005000000000003C12.722,7.727000000000002,12.968,7.950000000000003,12.968,8.500000000000002V10.500000000000002L13.48,10.254000000000001C13.955,9.977000000000002,14.822000000000001,9.524000000000001,15.296000000000001,9.246000000000002L17.319000000000003,8.005000000000003C17.793,7.727,17.967,7.95,17.967,8.5Z"></path>
</svg>