<svg xmlns="http://www.w3.org/2000/svg" version="1.1" width="24" height="24">
<path class="button sound-on-button" fill="#333333" d="M11,16.193C11,16.743000000000002,10.638,16.925,10.195,16.599L7.605,14.686C7.162000000000001,14.36,6.800000000000001,14.117,6.800000000000001,14.146C6.800000000000001,14.174000000000001,6.3500000000000005,14.199000000000002,5.800000000000001,14.199000000000002H5C4.45,14.199000000000002,4,13.749000000000002,4,13.199000000000002V11C4,10.45,4.45,10,5,10H5.801C6.351,10,6.801,10.066,6.801,10.147S7.163,10.027000000000001,7.606,9.700000000000001L10.196,7.788000000000001C10.638,7.46,11,7.644,11,8.193V16.193ZM13,12C13,12.346,13,12.346,13,12.346C12.752,12.603,12.713,12.974,12.914,13.17S13.558,13.174,13.9,12.743C13.9,12.743,14.001000000000001,12.616,14.001000000000001,12S13.9,11.257,13.9,11.257C13.558,10.826,13.115,10.633,12.914,10.83S12.752,11.397,13,11.655C13,11.655,13,11.655,13,12ZM16,12C16,13.158,15.299,14.116,15.299,14.116C14.975,14.56,14.87,15.081,15.068999999999999,15.273C15.265999999999998,15.466,15.69,15.258,16.009999999999998,14.811C16.009999999999998,14.811,16.999999999999996,13.43,16.999999999999996,11.999S16.008999999999997,9.186,16.008999999999997,9.186C15.688999999999997,8.739,15.265999999999996,8.531,15.068999999999997,8.724C14.870999999999997,8.917,14.974999999999998,9.438,15.298999999999998,9.882C15.299,9.883,16,10.842,16,12ZM19,12C19,13.972,17.435,16.206,17.435,16.206C17.119999999999997,16.657,17.023,17.184,17.221,17.375999999999998C17.418,17.567999999999998,17.836,17.357,18.151,16.904999999999998C18.151,16.904999999999998,20.001,14.245999999999999,20.001,11.999999999999996S18.151,7.093999999999997,18.151,7.093999999999997C17.837,6.642999999999997,17.419,6.4309999999999965,17.221,6.623999999999997C17.023,6.816999999999997,17.119,7.342999999999997,17.435,7.793999999999997C17.435,7.794,19,10.028,19,12Z"></path>
</svg>